<?xml version="1.0" encoding="UTF-8"?>
<svg id="Nostr_Branding" data-name="Nostr Branding" xmlns="http://www.w3.org/2000/svg" viewBox="0 0 512 512">
  <defs>
    <style>
      .cls-1 {
        fill: #fafafa;
      }
    </style>
  </defs>
  <g id="Nostr_Logo_White" data-name="Nostr Logo White">
    <path id="Icon" class="cls-1" d="M384.47,95.69c-4.26-3.12-9.19-6.08-12.6-10.16-2.06-2.46-4.33-6.9-1.83-9.86.49-.58,6.96-3.27,7.72-3.28,5.16-.1,23.75-.9,24.85-1.31.78-.29.82-1.38.06-1.72-2.97-1.34-6.15-1.95-9.28-2.75-.34-.07-.29-.57.06-.57,0,0,8.42-.08,9.52-.43.78-.25.88-1.32.16-1.71-1.52-.82-3.42-1.14-5.07-1.65-4.71-1.46-9.5-2.53-14.02-4.54-5.91-2.76-12.3-9.42-19.23-9.28-11.97.23-15.07,16.3-14.13,25.7,2.71,27.24,35.99,31.47,37.54,53.99.81,11.75-4.08,21.47-15.02,26.34-7.83,3.48-15.15.35-22.94.89-2.72.19-5.66,1.69-8.02,1.68-4.61-.03-11.68-6.03-15.91-8.43-28.05-15.94-57.32-12.58-86.11-.43-16.05,6.77-33.59,19.26-51.11,21-7.31.73-16.86,0-24.46,0-.39,0-1.51,1.53-1.58,2.22-.18,1.8,3.3,5.29.9,5.9-1.43.36-7.05-3.29-10.04-3.66-13.85-1.7-29.3,5.97-37.5,16.91-2.14,2.85-10.73,17.86-7.31,20.36,2.18,1.59,11.35-6.35,15.09-4.74-.61,3.77-6.96,20.57-.21,21.17,2.2.2,8.95-8.09,11.38-9.86,1.57-1.14,3.45-3.31,5.09-.9-1.15,2.87-4.72,15.36-.79,16.47,1.91.54,9.66-5.01,11.91-6.12,5.95-2.96,16.53-5.61,23.18-6.29,7.43-.76,11.03,3.89,17.26,7.06,12.03,6.13,25.29,9.36,38.44,12.23,2.4,1.63-4.3,9.27-5.59,10.74-8.89,10.12-18.06,15.49-29.37,22.04-8.51,4.93-6.34,9.9-9.95,17.01l-34.68,49.33c-3.57,4.46-9.61,3.62-14.54,6.15-3.33,1.71-12.9,11.74-6.08,12.46,1.1.12,4.91-1.58,4.63.5-.22,1.66-3.51,5.44-4.51,7.41-2.63,5.17-4.47,11.79-2.88,17.52,2.47,8.95,6.54-3.92,7.89-6.25,4.35-7.53,11.63-12.33,16.69-19.05,5.77-7.65,10.66-17.01,16.39-24.98,9.19-12.78,19.72-24.69,29.12-37.33,4.88-2.46,10.17-4.49,13.08-9.49,1.35-2.31,1.27-5.12,3.28-7.38,2.37-2.67,23.98-19.02,27.38-20.89,1.51-.83,17.67-7.13,18.34-6.42.43,3.26-2.38,5.38-3.58,8.01-3.04,6.64-8.34,18.26-4.7,25.02,4.88,9.06,15.13.13,21.75-2.33,12.16-4.52,27.92-9.46,40.46-12.84,2.45-.66,12.75-3.69,14.15-1.61.56.83.11,2.79.42,3.97.65,2.47,2.87,9.08,6.36,7.94,2.83-.93-1.14-7.13,1.32-8.71,1.36-.08,10.76,11.35,15.83,12.39,5.38,1.11,2.82-3.34,1.53-5.93-2.36-4.74-9.65-16.26-13.02-20.21-5.31-6.24-10.25-5.7-17.7-4.01-12.32,2.8-26.59,8.06-38.87,11.92-2.15.68-14.67,5.38-15.47,5.19-.47-.12-.94-.81-.88-1.45.12-1.28,4.39-7.77,5.53-8.91,2.12-2.11,5.63-3.43,8.19-5.61,2.84-2.43,4.78-5.64,7.53-8.14,27.71-.01,66.43-4.83,68.96-39.51.32-4.4-1.11-12.91,1.35-16.2,10.23-6.81,20.92-12.22,29.08-21.71,15.05-17.51,22.32-41.66,8.1-62.02-3.05-4.37-7.3-7.71-11.56-10.83Z"/>
    <g id="NOSTR">
      <path id="N" class="cls-1" d="M118.2,402.76h15.3l28.03,36h.16v-36h15.3v58.87h-15.3l-28.03-36.07h-.16v36.07h-15.3v-58.87Z"/>
      <path id="O" class="cls-1" d="M249.14,431.1c0,19.05-13.66,32.48-32.56,32.48s-32.56-13.43-32.56-32.48c0-17.8,15.62-30.3,32.56-30.3s32.56,12.49,32.56,30.3ZM199.95,431.18c0,10.15,7.5,17.57,16.63,17.57s16.63-7.42,16.63-17.57c0-8.12-7.5-15.54-16.63-15.54s-16.63,7.42-16.63,15.54Z"/>
      <path id="S" class="cls-1" d="M288.57,417.91c-2.81-2.34-6.4-3.9-10.15-3.9-2.81,0-6.56,1.64-6.56,4.92s4.14,4.76,6.79,5.62l3.9,1.17c8.2,2.42,14.52,6.56,14.52,16.08,0,5.86-1.41,11.87-6.09,15.85-4.61,3.9-10.78,5.54-16.71,5.54-7.42,0-14.68-2.5-20.69-6.72l6.56-12.34c3.83,3.36,8.35,6.09,13.59,6.09,3.59,0,7.42-1.8,7.42-5.93s-6.01-5.78-9.29-6.72c-9.6-2.73-15.93-5.23-15.93-16.63s8.51-19.75,20.3-19.75c5.93,0,13.2,1.87,18.43,4.84l-6.09,11.87Z"/>
      <path id="T" class="cls-1" d="M327.77,461.63h-15.3v-45.91h-12.65v-12.96h40.6v12.96h-12.65v45.91Z"/>
      <path id="R" class="cls-1" d="M394.91,461.63h-19.05l-14.44-22.64h-.16v22.64h-15.3v-58.87h22.88c11.63,0,20.46,5.54,20.46,18.11,0,8.12-4.53,15.15-12.88,16.63l18.51,24.13ZM361.26,429.15h1.48c5,0,10.62-.94,10.62-7.34s-5.62-7.34-10.62-7.34h-1.48v14.68Z"/>
    </g>
  </g>
</svg>