<?xml version="1.0" encoding="UTF-8"?>
<svg id="Nostr_Branding" data-name="Nostr Branding" xmlns="http://www.w3.org/2000/svg" viewBox="0 0 512 512">
  <defs>
    <style>
      .cls-1 {
        fill: #fafafa;
      }
    </style>
  </defs>
  <g id="Nostr_Icon_Simple_1" data-name="Nostr Icon Simple 1">
    <rect x="0" width="512" height="512"/>
    <path id="Icon" class="cls-1" d="M396.98,122.55c-4.67-3.42-10.08-6.67-13.83-11.15-2.26-2.7-4.75-7.57-2.01-10.82.54-.64,7.64-3.58,8.48-3.6,5.67-.11,26.06-.99,27.27-1.44.86-.32.89-1.52.06-1.89-3.26-1.47-6.74-2.14-10.19-3.02-.38-.07-.32-.63.07-.62,0,0,9.24-.09,10.45-.48.86-.27.97-1.45.17-1.88-1.67-.9-3.76-1.25-5.56-1.81-5.17-1.6-10.42-2.78-15.38-4.99-6.48-3.03-13.5-10.34-21.1-10.19-13.14.25-16.54,17.89-15.51,28.21,2.97,29.89,39.5,34.53,41.2,59.25.89,12.9-4.48,23.56-16.48,28.91-8.59,3.82-16.63.38-25.18.98-2.99.21-6.21,1.86-8.8,1.84-5.06-.03-12.81-6.61-17.46-9.25-30.79-17.49-62.9-13.81-94.5-.48-17.61,7.43-36.87,21.13-56.09,23.04-8.02.8-18.51,0-26.84,0-.43,0-1.66,1.68-1.74,2.44-.2,1.97,3.62,5.81.99,6.47-1.57.4-7.73-3.62-11.02-4.02-15.2-1.87-32.16,6.55-41.16,18.55-2.35,3.13-11.77,19.6-8.02,22.35,2.39,1.75,12.45-6.97,16.56-5.21-.67,4.14-7.63,22.57-.23,23.24,2.41.22,9.83-8.88,12.49-10.82,1.72-1.25,3.78-3.63,5.59-.99-1.26,3.15-5.18,16.85-.87,18.08,2.09.6,10.61-5.5,13.06-6.72,6.53-3.25,18.15-6.16,25.44-6.9,8.15-.83,12.1,4.27,18.94,7.75,13.21,6.73,27.76,10.27,42.19,13.42,2.64,1.79-4.71,10.17-6.13,11.78-9.75,11.11-19.82,17-32.23,24.19-9.34,5.41-6.96,10.86-10.92,18.66l-38.06,54.13c-3.92,4.89-10.54,3.97-15.96,6.75-3.66,1.87-14.16,12.89-6.67,13.68,1.21.13,5.39-1.74,5.09.55-.25,1.83-3.85,5.97-4.95,8.13-2.89,5.67-4.9,12.93-3.16,19.23,2.71,9.82,7.18-4.3,8.66-6.86,4.78-8.27,12.76-13.54,18.32-20.9,6.33-8.4,11.7-18.67,17.99-27.42,10.09-14.03,21.65-27.09,31.96-40.97,5.35-2.7,11.16-4.93,14.36-10.41,1.48-2.54,1.4-5.62,3.6-8.1,2.61-2.93,26.31-20.87,30.05-22.93,1.66-.91,19.39-7.82,20.13-7.05.47,3.58-2.61,5.91-3.93,8.79-3.33,7.29-9.15,20.04-5.15,27.46,5.36,9.94,16.61.14,23.87-2.56,13.34-4.96,30.64-10.38,44.4-14.09,2.69-.72,13.99-4.05,15.53-1.77.62.91.12,3.06.46,4.35.71,2.71,3.15,9.97,6.98,8.71,3.11-1.02-1.25-7.82,1.45-9.56,1.49-.08,11.81,12.45,17.37,13.6,5.91,1.22,3.09-3.67,1.67-6.51-2.59-5.21-10.59-17.84-14.28-22.18-5.83-6.85-11.25-6.26-19.42-4.4-13.53,3.08-29.18,8.85-42.66,13.08-2.36.74-16.1,5.91-16.97,5.69-.52-.13-1.03-.89-.97-1.59.13-1.4,4.82-8.53,6.07-9.78,2.32-2.32,6.18-3.76,8.98-6.15,3.12-2.66,5.24-6.19,8.26-8.94,30.41-.01,72.9-5.3,75.68-43.36.35-4.82-1.22-14.17,1.49-17.77,11.23-7.47,22.96-13.41,31.91-23.82,16.52-19.21,24.49-45.71,8.89-68.06-3.35-4.79-8.01-8.46-12.68-11.88Z"/>
  </g>
</svg>